{
  "accessors": [
    {
      "bufferView": 2,
      "componentType": 5126,
      "count": 2384,
      "max": [
        4.672459602355957,
        0.7190009355545044,
        4.671480178833008
      ],
      "min": [
        -0.034238141030073166,
        -0.7190009355545044,
        -0.034238141030073166
      ],
      "type": "VEC3"
    },
    {
      "bufferView": 2,
      "byteOffset": 28608,
      "componentType": 5126,
      "count": 2384,
      "max": [
        0.9999998211860657,
        1.0,
        1.0
      ],
      "min": [
        -0.9999998211860657,
        -1.0,
        -0.9999998807907104
      ],
      "type": "VEC3"
    },
    {
      "bufferView": 1,
      "componentType": 5126,
      "count": 2384,
      "max": [
        0.0,
        1.0
      ],
      "min": [
        0.0,
        1.0
      ],
      "type": "VEC2"
    },
    {
      "bufferView": 0,
      "componentType": 5125,
      "count": 13716,
      "type": "SCALAR"
    }
  ],
  "asset": {
    "extras": {
      "author": "sorenfroststaal (https://sketchfab.com/sorenfroststaal)",
      "license": "CC-BY-4.0 (http://creativecommons.org/licenses/by/4.0/)",
      "source": "https://sketchfab.com/3d-models/linked-in-logo-49121a2920f8476483e1e898c83bac15",
      "title": "Linked In Logo"
    },
    "generator": "Sketchfab-15.25.0",
    "version": "2.0"
  },
  "bufferViews": [
    {
      "buffer": 0,
      "byteLength": 54864,
      "name": "floatBufferViews",
      "target": 34963
    },
    {
      "buffer": 0,
      "byteLength": 19072,
      "byteOffset": 54864,
      "byteStride": 8,
      "name": "floatBufferViews",
      "target": 34962
    },
    {
      "buffer": 0,
      "byteLength": 57216,
      "byteOffset": 73936,
      "byteStride": 12,
      "name": "floatBufferViews",
      "target": 34962
    }
  ],
  "buffers": [
    {
      "byteLength": 131152,
      "uri": "scene.bin"
    }
  ],
  "extensionsUsed": [
    "KHR_materials_transmission"
  ],
  "materials": [
    {
      "alphaMode": "BLEND",
      "doubleSided": true,
      "extensions": {
        "KHR_materials_transmission": {
          "transmissionFactor": 1.0
        }
      },
      "name": "Material",
      "pbrMetallicRoughness": {
        "baseColorFactor": [
          0.00023639876665308118,
          0.04169781392877603,
          0.09760766351008722,
          0.25
        ],
        "metallicFactor": 0.0,
        "roughnessFactor": 0.18121189024390238
      }
    }
  ],
  "meshes": [
    {
      "name": "Object_0",
      "primitives": [
        {
          "attributes": {
            "NORMAL": 1,
            "POSITION": 0,
            "TEXCOORD_0": 2
          },
          "indices": 3,
          "material": 0,
          "mode": 4
        }
      ]
    }
  ],
  "nodes": [
    {
      "children": [
        1
      ],
      "matrix": [
        1.0,
        0.0,
        0.0,
        0.0,
        0.0,
        2.220446049250313e-16,
        -1.0,
        0.0,
        0.0,
        1.0,
        2.220446049250313e-16,
        0.0,
        0.0,
        0.0,
        0.0,
        1.0
      ],
      "name": "Sketchfab_model"
    },
    {
      "children": [
        2
      ],
      "name": "root"
    },
    {
      "children": [
        3
      ],
      "matrix": [
        1.0,
        0.0,
        0.0,
        0.0,
        0.0,
        2.220446049250313e-16,
        1.0,
        0.0,
        0.0,
        -1.0,
        2.220446049250313e-16,
        0.0,
        0.0,
        0.0,
        0.0,
        1.0
      ],
      "name": "GLTF_SceneRootNode"
    },
    {
      "children": [
        4
      ],
      "matrix": [
        0.02124631777405739,
        0.0,
        0.0,
        0.0,
        0.0,
        0.02124631777405739,
        0.0,
        0.0,
        0.0,
        0.0,
        0.02124631777405739,
        0.0,
        0.0,
        0.0,
        0.0,
        1.0
      ],
      "name": "LI_logo_02_0"
    },
    {
      "children": [
        5
      ],
      "matrix": [
        1.0,
        0.0,
        0.0,
        0.0,
        0.0,
        0.0,
        0.40317046642303467,
        0.0,
        0.0,
        -1.0,
        0.0,
        0.0,
        0.0,
        0.0,
        0.0,
        1.0
      ],
      "name": "Curve_1"
    },
    {
      "mesh": 0,
      "name": "Object_5"
    }
  ],
  "scene": 0,
  "scenes": [
    {
      "name": "Sketchfab_Scene",
      "nodes": [
        0
      ]
    }
  ]
}
